HIERARCHY
ROOT Hips
{
 OFFSET 0.000000 0.000000 0.000000
 CHANNELS 6 Xposition Yposition Zposition Yrotation Xrotation Zrotation
 JOINT Chest
 {
  OFFSET 0.000000 10.385163 0.011643
  CHANNELS 3 Yrotation Xrotation Zrotation
  JOINT Chest2
  {
   OFFSET 0.000000 11.579334 -0.021150
   CHANNELS 3 Yrotation Xrotation Zrotation
   JOINT Chest3
   {
    OFFSET 0.000000 10.463212 0.000000
    CHANNELS 3 Yrotation Xrotation Zrotation
    JOINT Chest4
    {
     OFFSET 0.000000 10.463212 0.000000
     CHANNELS 3 Yrotation Xrotation Zrotation
     JOINT Neck
     {
      OFFSET 0.000000 14.544862 0.000000
      CHANNELS 3 Yrotation Xrotation Zrotation
      JOINT Head
      {
       OFFSET 0.000000 9.730630 -0.050295
       CHANNELS 3 Yrotation Xrotation Zrotation
       End Site
       {
        OFFSET 0.000000 18.757589 -0.026270
       }
      }
     }
     JOINT RightCollar
     {
      OFFSET -2.985174 8.102313 0.000000
      CHANNELS 3 Yrotation Xrotation Zrotation
      JOINT RightShoulder
      {
       OFFSET -13.558590 0.000000 0.000000
       CHANNELS 3 Yrotation Xrotation Zrotation
       JOINT RightElbow
       {
        OFFSET -28.208579 0.000000 0.000000
        CHANNELS 3 Yrotation Xrotation Zrotation
        JOINT RightWrist
        {
         OFFSET -23.322907 0.000000 0.010349
         CHANNELS 3 Yrotation Xrotation Zrotation
         End Site
         {
          OFFSET -17.603338 0.000000 0.000000
         }
        }
       }
      }
     }
     JOINT LeftCollar
     {
      OFFSET 2.985174 8.102313 0.000000
      CHANNELS 3 Yrotation Xrotation Zrotation
      JOINT LeftShoulder
      {
       OFFSET 13.558590 0.000000 0.000000
       CHANNELS 3 Yrotation Xrotation Zrotation
       JOINT LeftElbow
       {
        OFFSET 28.208579 0.000000 0.000000
        CHANNELS 3 Yrotation Xrotation Zrotation
        JOINT LeftWrist
        {
         OFFSET 23.322907 0.000000 0.010349
         CHANNELS 3 Yrotation Xrotation Zrotation
         End Site
         {
          OFFSET 17.603338 0.000000 0.000000
         }
        }
       }
      }
     }
    }
   }
  }
 }
 JOINT RightHip
 {
  OFFSET -8.341224 -0.057053 -0.005822
  CHANNELS 3 Yrotation Xrotation Zrotation
  JOINT RightKnee
  {
   OFFSET 0.000000 -44.280013 0.005508
   CHANNELS 3 Yrotation Xrotation Zrotation
   JOINT RightAnkle
   {
    OFFSET 0.000000 -43.261728 0.009315
    CHANNELS 3 Yrotation Xrotation Zrotation
    JOINT RightToe
    {
     OFFSET 0.000000 -8.082955 18.257715
     CHANNELS 3 Yrotation Xrotation Zrotation
     End Site
     {
      OFFSET 0.000000 -1.634678 7.189621
     }
    }
   }
  }
 }
 JOINT LeftHip
 {
  OFFSET 8.341224 -0.057053 -0.005822
  CHANNELS 3 Yrotation Xrotation Zrotation
  JOINT LeftKnee
  {
   OFFSET 0.000000 -44.280013 0.005508
   CHANNELS 3 Yrotation Xrotation Zrotation
   JOINT LeftAnkle
   {
    OFFSET 0.000000 -43.261728 0.009315
    CHANNELS 3 Yrotation Xrotation Zrotation
    JOINT LeftToe
    {
     OFFSET 0.000000 -8.082955 18.257715
     CHANNELS 3 Yrotation Xrotation Zrotation
     End Site
     {
      OFFSET 0.000000 -1.634678 7.189621
     }
    }
   }
  }
 }
}
MOTION
Frames: 10
Frame Time: 0.016667
0.000000 95.489079 0.000000 0.000000 -5.826342 0.000000 0.000000 11.116423 0.000000 0.000000 -5.290081 0.000000 0.000000 0.000000 0.000000 0.000000 0.000000 0.000000 0.000000 12.665069 0.000000 0.000000 0.575450 0.000000 0.000000 0.000000 0.000000 0.000000 0.000000 0.000000 2.337306 0.000000 0.000000 -2.337306 0.000000 0.000000 0.000000 0.000000 0.000000 0.000000 0.000000 0.000000 -2.337306 0.000000 0.000000 2.337306 0.000000 0.000000 0.000000 8.578828 0.000000 0.000000 1.905768 0.000000 0.000000 -4.658254 0.000000 0.000000 0.000000 0.000000 0.000000 8.578828 0.000000 0.000000 1.905768 0.000000 0.000000 -4.658254 0.000000 0.000000 0.000000 0.000000
-189.651883 97.409181 -224.085014 94.230583 -23.150960 -0.277715 -1.608192 13.015446 2.673625 -0.785475 5.775398 1.225735 -0.785504 5.775412 1.225735 -0.600270 4.330024 0.925970 -11.155275 13.372284 1.138454 -21.528270 -10.319941 6.545937 0.336680 -3.298242 2.914632 0.853480 -13.509875 80.272612 3.728688 15.665594 -3.517072 2.772858 -1.456362 -5.560881 -1.783420 -4.814279 -15.897153 0.791092 -6.904634 -76.664024 0.249030 19.801953 3.856325 -3.639903 -5.931626 2.003465 -2.870156 27.636422 -0.373291 -0.164039 -0.968339 0.401154 -10.664959 -5.687497 3.929464 0.000000 0.000000 0.000000 9.923546 26.874451 6.651759 -0.355709 -1.128953 0.162170 4.762945 -3.876320 -4.228955 0.000000 -0.000000 0.000000
-189.675212 97.420362 -224.070248 93.847776 -23.016944 -0.246057 -1.667912 12.912131 2.635828 -0.810239 5.729264 1.210481 -0.810258 5.729272 1.210480 -0.618583 4.295385 0.914722 -11.419642 13.460937 1.188299 -22.029985 -10.103937 6.719776 0.216397 -3.151381 2.953935 0.503403 -13.426959 80.082003 4.723358 10.761153 -3.145262 2.112380 -2.196546 -4.853006 -1.832965 -4.691672 -15.726028 0.932689 -7.018964 -76.648780 0.070882 19.025037 3.649466 -3.531415 -6.221958 1.535507 -2.675378 27.387491 -0.316891 -0.017464 -0.873014 0.425335 -10.620273 -5.670031 3.885957 0.000000 0.000000 0.000000 9.952342 26.717798 6.527464 -0.070147 -1.018649 0.311933 4.806744 -3.925939 -4.303983 0.000000 -0.000000 -0.000000
-189.693950 97.429453 -224.059404 93.467060 -22.902194 -0.219805 -1.724531 12.817894 2.607798 -0.833960 5.687152 1.199447 -0.833960 5.687152 1.199447 -0.636153 4.263758 0.906631 -11.637637 13.558163 1.227762 -22.438499 -9.881196 6.854320 0.103942 -3.033204 2.983749 0.194244 -13.364246 79.880899 5.444545 6.471482 -2.920615 1.607616 -2.818698 -4.410480 -1.883721 -4.598588 -15.567402 1.044398 -7.125114 -76.631387 -0.049609 18.396968 3.486092 -3.363817 -6.424025 1.087741 -2.518581 27.175134 -0.284447 0.163597 -0.794628 0.453984 -10.574829 -5.651364 3.847395 0.000000 0.000000 0.000000 10.028734 26.583010 6.438457 0.183704 -0.917496 0.444294 4.842199 -3.977798 -4.367571 0.000000 -0.000000 0.000000
-189.707150 97.435202 -224.053475 93.089739 -22.810766 -0.200710 -1.779180 12.731958 2.592731 -0.857255 5.648711 1.194078 -0.857255 5.648712 1.194079 -0.653492 4.234891 0.902782 -11.788595 13.678367 1.253495 -22.711622 -9.629919 6.933152 -0.004345 -2.962569 3.001493 -0.076494 -13.325963 79.667728 5.874405 2.917485 -2.819115 1.451961 -3.308442 -4.232525 -1.936288 -4.551052 -15.423249 1.121657 -7.214142 -76.607819 -0.094467 17.960866 3.370747 -3.083065 -6.487640 0.607747 -2.428555 27.013822 -0.294761 0.412277 -0.745209 0.492888 -10.534898 -5.629212 3.816323 -0.000000 0.000000 -0.000000 10.200470 26.470359 6.410326 0.376203 -0.825725 0.552179 4.855607 -4.033992 -4.413121 -0.000000 0.000000 0.000000
-189.715758 97.438862 -224.051468 92.714267 -22.738706 -0.186536 -1.830735 12.655328 2.587140 -0.879504 5.614391 1.192811 -0.879511 5.614394 1.192812 -0.670101 4.209113 0.901998 -11.893217 13.806746 1.269165 -22.892331 -9.373382 6.974138 -0.104877 -2.921007 3.010970 -0.305842 -13.307810 79.444687 6.092044 -0.012007 -2.815803 1.530536 -3.690750 -4.251998 -1.990334 -4.533489 -15.290563 1.168891 -7.295125 -76.581878 -0.085815 17.674579 3.294154 -2.750517 -6.460437 0.146591 -2.375922 26.889000 -0.328579 0.695476 -0.712870 0.536292 -10.494205 -5.605867 3.790200 -0.000000 -0.000000 -0.000000 10.419379 26.379906 6.416393 0.536861 -0.743013 0.642572 4.860656 -4.092488 -4.447188 0.000000 -0.000000 -0.000000
-189.718020 97.442096 -224.054333 92.337859 -22.693485 -0.175407 -1.872661 12.599976 2.589563 -0.897808 5.589542 1.194868 -0.897808 5.589542 1.194868 -0.683783 4.190433 0.903675 -11.966357 13.907543 1.277520 -23.015712 -9.174271 6.995488 -0.179054 -2.881659 3.014439 -0.445052 -13.313299 79.209494 6.098771 -2.033264 -2.967429 1.667622 -3.918341 -4.560141 -2.045634 -4.529905 -15.172828 1.169438 -7.387723 -76.563283 -0.033068 17.560631 3.271355 -2.487378 -6.401861 -0.121458 -2.310772 26.794036 -0.353028 0.948393 -0.678667 0.571112 -10.433146 -5.587016 3.766340 0.000000 0.000000 0.000000 10.589116 26.334203 6.412665 0.722339 -0.677407 0.718925 4.890010 -4.149386 -4.478055 -0.000000 -0.000000 -0.000000
-189.710367 97.445665 -224.063388 91.949207 -22.687233 -0.167781 -1.899798 12.575598 2.600640 -0.909964 5.578505 1.200429 -0.909955 5.578502 1.200428 -0.692911 4.182118 0.907939 -12.001495 13.969018 1.278766 -23.071750 -9.055296 6.997891 -0.212855 -2.838167 3.012750 -0.443774 -13.351902 78.953394 5.840531 -2.613221 -3.344813 1.841846 -3.884739 -5.290472 -2.105633 -4.544049 -15.073225 1.110154 -7.496005 -76.554556 0.084750 17.713512 3.322235 -2.332650 -6.309711 -0.090963 -2.201845 26.737971 -0.350064 1.136638 -0.637114 0.590795 -10.334840 -5.574467 3.744147 -0.000000 -0.000000 0.000000 10.672520 26.357808 6.387077 0.960916 -0.638557 0.777069 4.961794 -4.203080 -4.508283 -0.000000 0.000000 -0.000000
-189.696368 97.448808 -224.077316 91.559340 -22.707872 -0.162527 -1.917276 12.572588 2.619132 -0.918180 5.576996 1.209063 -0.918175 5.576994 1.209063 -0.699151 4.180961 0.914484 -12.004672 14.002925 1.274007 -23.070295 -8.993605 6.983247 -0.220313 -2.796915 3.005413 -0.352490 -13.412318 78.686357 5.395570 -2.284498 -3.875417 2.075637 -3.700821 -6.314173 -2.166701 -4.572713 -14.988115 1.004196 -7.616536 -76.552564 0.246669 18.039161 3.424557 -2.241781 -6.187858 0.131611 -2.080435 26.711827 -0.338220 1.294617 -0.593630 0.601686 -10.216155 -5.566430 3.724217 -0.000000 0.000000 -0.000000 10.706942 26.426278 6.351413 1.224198 -0.616726 0.820937 5.057859 -4.255136 -4.535394 0.000000 -0.000000 0.000000
-189.684972 97.450910 -224.093113 91.199088 -22.726508 -0.155635 -1.933997 12.573892 2.640816 -0.926169 5.577394 1.219099 -0.926169 5.577394 1.219099 -0.705237 4.181231 0.922080 -12.009386 14.008762 1.267637 -23.075785 -8.983409 6.971892 -0.224947 -2.750107 2.992237 -0.274264 -13.466983 78.434253 4.965563 -2.362198 -4.394332 2.279883 -3.642303 -7.342264 -2.217902 -4.589465 -14.911300 0.874464 -7.757878 -76.558310 0.380335 18.277116 3.531617 -2.211069 -6.106455 0.404323 -1.990608 26.682114 -0.339508 1.460725 -0.545523 0.610114 -10.108111 -5.563190 3.705638 0.000000 0.000000 0.000000 10.707966 26.488674 6.298127 1.483876 -0.590923 0.866188 5.156466 -4.306375 -4.560127 0.000000 0.000000 0.000000
